<?xml version="1.0" standalone="no"?>
<!DOCTYPE svg PUBLIC "-//W3C//DTD SVG 20010904//EN"
 "http://www.w3.org/TR/2001/REC-SVG-20010904/DTD/svg10.dtd">
<svg version="1.0" xmlns="http://www.w3.org/2000/svg"
 width="240.000000pt" height="240.000000pt" viewBox="0 0 240.000000 240.000000"
 preserveAspectRatio="xMidYMid meet">
<metadata>
Created by potrace 1.11, written by Peter Selinger 2001-2013
</metadata>
<g transform="translate(0.000000,240.000000) scale(0.100000,-0.100000)"
fill="#000000" stroke="none">
<path d="M1137 2324 c-1 -1 -29 -4 -62 -7 -52 -5 -80 -10 -175 -32 -96 -22
-263 -104 -364 -179 -74 -55 -186 -162 -216 -206 -8 -12 -19 -28 -25 -34 -63
-72 -165 -284 -181 -376 -3 -14 -9 -42 -15 -63 -22 -82 -28 -238 -15 -357 6
-57 16 -102 55 -245 12 -47 87 -191 136 -264 117 -172 307 -325 505 -404 202
-80 397 -99 640 -61 127 20 340 117 464 212 60 46 206 190 206 203 0 4 6 14
13 21 55 57 161 271 182 368 2 8 8 37 15 64 23 101 29 249 16 371 -4 38 -9 72
-11 75 -2 3 -6 22 -9 43 -3 21 -11 47 -16 58 -6 10 -8 19 -5 19 12 0 -73 191
-114 255 -93 143 -205 262 -326 342 -80 54 -212 123 -236 123 -8 0 -19 4 -25
9 -14 13 -162 49 -234 57 -63 6 -198 12 -203 8z"/>
</g>
</svg>
